<svg width="1280" height="640" viewBox="0 0 1280 640" fill="none" xmlns="http://www.w3.org/2000/svg">
  <rect width="1280" height="640" fill="#F4F7F8"/>
  <rect x="72" y="72" width="1136" height="496" rx="36" fill="#17232D"/>
  <path d="M244 234L140 338C118 360 118 392 140 414L244 518" stroke="#F7FAFC" stroke-width="56" stroke-linecap="round" stroke-linejoin="round"/>
  <path d="M536 234L640 338C662 360 662 392 640 414L536 518" stroke="#F7FAFC" stroke-width="56" stroke-linecap="round" stroke-linejoin="round"/>
  <path d="M140 376H278C305 376 315 418 343 418C371 418 381 334 409 334C437 334 447 418 475 418C503 418 513 376 540 376H640" stroke="url(#path)" stroke-width="34" stroke-linecap="round"/>
  <circle cx="390" cy="376" r="78" fill="#17232D"/>
  <circle cx="390" cy="376" r="62" stroke="#F7FAFC" stroke-width="14"/>
  <path d="M390 308L440 436L390 408L340 436L390 308Z" fill="url(#nav)"/>
  <text x="724" y="278" fill="#F7FAFC" font-family="Inter, ui-sans-serif, system-ui, -apple-system, BlinkMacSystemFont, Segoe UI, sans-serif" font-size="92" font-weight="800">Navo</text>
  <text x="728" y="344" fill="#C6D5DC" font-family="Inter, ui-sans-serif, system-ui, -apple-system, BlinkMacSystemFont, Segoe UI, sans-serif" font-size="30" font-weight="600">Safe model navigation for Codex and OpenCode</text>
  <rect x="728" y="392" width="352" height="46" rx="23" fill="#F7FAFC"/>
  <text x="754" y="424" fill="#17232D" font-family="Inter, ui-sans-serif, system-ui, -apple-system, BlinkMacSystemFont, Segoe UI, sans-serif" font-size="22" font-weight="700">navo verify --fresh</text>
  <defs>
    <linearGradient id="path" x1="140" y1="376" x2="640" y2="376" gradientUnits="userSpaceOnUse">
      <stop stop-color="#1297FF"/>
      <stop offset="0.52" stop-color="#24C7D9"/>
      <stop offset="1" stop-color="#62D84E"/>
    </linearGradient>
    <linearGradient id="nav" x1="340" y1="372" x2="440" y2="372" gradientUnits="userSpaceOnUse">
      <stop stop-color="#1297FF"/>
      <stop offset="1" stop-color="#62D84E"/>
    </linearGradient>
  </defs>
</svg>
